<svg viewBox="0 0 512 512" xmlns="http://www.w3.org/2000/svg"><defs><linearGradient id="fiaGradient" x1="0%" y1="0%" x2="100%" y2="100%"><stop offset="0%" style="stop-color:#6366f1;stop-opacity:1" /><stop offset="100%" style="stop-color:#06b6d4;stop-opacity:1" /></linearGradient></defs><rect x="0" y="0" width="512" height="512" rx="128" fill="url(#fiaGradient)"/><g transform="translate(106, 106) scale(0.58)"><path d="M40 20 A20 20 0 0 1 60 0 H140 A20 20 0 0 1 160 20 V60 H40 Z" fill="white" fill-opacity="0.9"/><rect x="40" y="65" width="120" height="15" fill="white" fill-opacity="0.6"/><rect x="40" y="85" width="120" height="295" fill="white"/><path d="M40 380 H160 L130 440 H70 Z" fill="white" fill-opacity="0.7"/><path d="M70 440 H130 L100 500 Z" fill="white"/><path d="M160 85 H400 A40 40 0 0 1 440 125 V165 A20 20 0 0 1 420 185 H180 A20 20 0 0 1 160 165 V85 Z" fill="white" fill-opacity="0.95"/><path d="M160 250 H340 A30 30 0 0 1 370 280 V320 A20 20 0 0 1 350 340 H180 A20 20 0 0 1 160 320 V250 Z" fill="white" fill-opacity="0.9"/><circle cx="370" cy="460" r="42" fill="white" fill-opacity="0.4"/></g></svg>